<svg width="210" height="52" viewBox="0 0 210 52" fill="none" xmlns="http://www.w3.org/2000/svg">
<path fill-rule="evenodd" clip-rule="evenodd" d="M7.13307 38.4587C5.40988 38.4587 4 37.0488 4 35.3256L4 24.372L11.8863 24.372L11.8863 24.3598L16.6263 24.3598C17.8482 24.3285 18.8821 23.2633 18.8821 22.01C18.8821 20.7255 17.8168 19.6602 16.5323 19.6602L10.2661 19.6602L10.2661 19.6622L4 19.6622L4 16.5272C4 14.804 5.40988 13.3941 7.13307 13.3941L16.5323 13.3941C18.9134 13.3941 20.9499 14.24 22.6104 15.9319C24.3023 17.5924 25.1482 19.6289 25.1482 22.01C25.1482 24.3598 24.3336 26.3963 22.6731 28.0569C21.0126 29.7174 19.0074 30.5947 16.6576 30.626L10.2661 30.626L10.2661 35.3256C10.2661 37.0488 8.85626 38.4587 7.13307 38.4587Z" fill="#02BC6B"/>
<path fill-rule="evenodd" clip-rule="evenodd" d="M29.0975 9.7578C32.5589 13.1199 34.3031 17.3073 34.3031 22.0672C34.3031 26.7473 32.6319 30.9307 29.2239 34.3034L24.3852 29.7508C26.5047 27.6533 27.545 25.128 27.545 22.0672C27.545 18.9832 26.4734 16.4619 24.3031 14.3538L29.0975 9.7578Z" fill="#02897A"/>
<path fill-rule="evenodd" clip-rule="evenodd" d="M36.5055 4C41.4911 8.97781 43.9999 15.1499 43.9999 22.2338C43.9999 29.2071 41.5922 35.3753 36.6884 40.3638L32.0186 35.8009C35.6715 32.085 37.4614 27.5781 37.4614 22.2338C37.4614 16.8358 35.6111 12.3328 31.8787 8.60616L36.5055 4Z" fill="#035B81"/>
<path fill-rule="evenodd" clip-rule="evenodd" d="M4 30.6524L10.2661 30.6524L10.2661 35.326C10.2661 37.0492 8.85626 38.4591 7.13307 38.4591C5.40988 38.4591 4 37.0492 4 35.326L4 30.6524Z" fill="#028E37"/>
<g filter="url(#filter0_d_402_2)">
<path d="M89.91 22.72C89.91 23.94 89.63 25.06 89.07 26.08C88.51 27.08 87.65 27.89 86.49 28.51C85.33 29.13 83.89 29.44 82.17 29.44H78.99V37H73.86V15.94H82.17C83.85 15.94 85.27 16.23 86.43 16.81C87.59 17.39 88.46 18.19 89.04 19.21C89.62 20.23 89.91 21.4 89.91 22.72ZM81.78 25.36C82.76 25.36 83.49 25.13 83.97 24.67C84.45 24.21 84.69 23.56 84.69 22.72C84.69 21.88 84.45 21.23 83.97 20.77C83.49 20.31 82.76 20.08 81.78 20.08H78.99V25.36H81.78ZM97.7107 23.05C98.3107 22.13 99.0607 21.41 99.9607 20.89C100.861 20.35 101.861 20.08 102.961 20.08V25.51H101.551C100.271 25.51 99.3107 25.79 98.6707 26.35C98.0307 26.89 97.7107 27.85 97.7107 29.23V37H92.5807V20.26H97.7107V23.05ZM113.033 37.24C111.393 37.24 109.913 36.89 108.593 36.19C107.293 35.49 106.263 34.49 105.503 33.19C104.763 31.89 104.393 30.37 104.393 28.63C104.393 26.91 104.773 25.4 105.533 24.1C106.293 22.78 107.333 21.77 108.653 21.07C109.973 20.37 111.453 20.02 113.093 20.02C114.733 20.02 116.213 20.37 117.533 21.07C118.853 21.77 119.893 22.78 120.653 24.1C121.413 25.4 121.793 26.91 121.793 28.63C121.793 30.35 121.403 31.87 120.623 33.19C119.863 34.49 118.813 35.49 117.473 36.19C116.153 36.89 114.673 37.24 113.033 37.24ZM113.033 32.8C114.013 32.8 114.843 32.44 115.523 31.72C116.223 31 116.573 29.97 116.573 28.63C116.573 27.29 116.233 26.26 115.553 25.54C114.893 24.82 114.073 24.46 113.093 24.46C112.093 24.46 111.263 24.82 110.603 25.54C109.943 26.24 109.613 27.27 109.613 28.63C109.613 29.97 109.933 31 110.573 31.72C111.233 32.44 112.053 32.8 113.033 32.8ZM123.494 28.6C123.494 26.88 123.814 25.37 124.454 24.07C125.114 22.77 126.004 21.77 127.124 21.07C128.244 20.37 129.494 20.02 130.874 20.02C131.974 20.02 132.974 20.25 133.874 20.71C134.794 21.17 135.514 21.79 136.034 22.57V14.8H141.164V37H136.034V34.6C135.554 35.4 134.864 36.04 133.964 36.52C133.084 37 132.054 37.24 130.874 37.24C129.494 37.24 128.244 36.89 127.124 36.19C126.004 35.47 125.114 34.46 124.454 33.16C123.814 31.84 123.494 30.32 123.494 28.6ZM136.034 28.63C136.034 27.35 135.674 26.34 134.954 25.6C134.254 24.86 133.394 24.49 132.374 24.49C131.354 24.49 130.484 24.86 129.764 25.6C129.064 26.32 128.714 27.32 128.714 28.6C128.714 29.88 129.064 30.9 129.764 31.66C130.484 32.4 131.354 32.77 132.374 32.77C133.394 32.77 134.254 32.4 134.954 31.66C135.674 30.92 136.034 29.91 136.034 28.63ZM161.406 20.26V37H156.276V34.72C155.756 35.46 155.046 36.06 154.146 36.52C153.266 36.96 152.286 37.18 151.206 37.18C149.926 37.18 148.796 36.9 147.816 36.34C146.836 35.76 146.076 34.93 145.536 33.85C144.996 32.77 144.726 31.5 144.726 30.04V20.26H149.826V29.35C149.826 30.47 150.116 31.34 150.696 31.96C151.276 32.58 152.056 32.89 153.036 32.89C154.036 32.89 154.826 32.58 155.406 31.96C155.986 31.34 156.276 30.47 156.276 29.35V20.26H161.406ZM164.07 28.63C164.07 26.89 164.42 25.37 165.12 24.07C165.84 22.77 166.83 21.77 168.09 21.07C169.37 20.37 170.83 20.02 172.47 20.02C174.57 20.02 176.32 20.57 177.72 21.67C179.14 22.77 180.07 24.32 180.51 26.32H175.05C174.59 25.04 173.7 24.4 172.38 24.4C171.44 24.4 170.69 24.77 170.13 25.51C169.57 26.23 169.29 27.27 169.29 28.63C169.29 29.99 169.57 31.04 170.13 31.78C170.69 32.5 171.44 32.86 172.38 32.86C173.7 32.86 174.59 32.22 175.05 30.94H180.51C180.07 32.9 179.14 34.44 177.72 35.56C176.3 36.68 174.55 37.24 172.47 37.24C170.83 37.24 169.37 36.89 168.09 36.19C166.83 35.49 165.84 34.49 165.12 33.19C164.42 31.89 164.07 30.37 164.07 28.63ZM192.585 32.65V37H189.975C188.115 37 186.665 36.55 185.625 35.65C184.585 34.73 184.065 33.24 184.065 31.18V24.52H182.025V20.26H184.065V16.18H189.195V20.26H192.555V24.52H189.195V31.24C189.195 31.74 189.315 32.1 189.555 32.32C189.795 32.54 190.195 32.65 190.755 32.65H192.585Z" fill="#173A56"/>
</g>
<defs>
<filter id="filter0_d_402_2" x="0" y="0" width="210" height="52" filterUnits="userSpaceOnUse" color-interpolation-filters="sRGB">
<feFlood flood-opacity="0" result="BackgroundImageFix"/>
<feColorMatrix in="SourceAlpha" type="matrix" values="0 0 0 0 0 0 0 0 0 0 0 0 0 0 0 0 0 0 127 0" result="hardAlpha"/>
<feOffset dy="4"/>
<feGaussianBlur stdDeviation="2"/>
<feComposite in2="hardAlpha" operator="out"/>
<feColorMatrix type="matrix" values="0 0 0 0 0 0 0 0 0 0 0 0 0 0 0 0 0 0 0.25 0"/>
<feBlend mode="normal" in2="BackgroundImageFix" result="effect1_dropShadow_402_2"/>
<feBlend mode="normal" in="SourceGraphic" in2="effect1_dropShadow_402_2" result="shape"/>
</filter>
</defs>
</svg>
